<svg width="512" height="512" viewBox="0 0 512 512" fill="none" xmlns="http://www.w3.org/2000/svg">
<path d="M86.76 255C88.4674 254.998 90.1452 254.553 91.63 253.71C92.7535 253.07 93.7395 252.214 94.5315 251.192C95.3234 250.17 95.9057 249.001 96.2448 247.753C96.5839 246.505 96.6733 245.203 96.5077 243.92C96.3421 242.638 95.9249 241.401 95.28 240.28C78.82 211.72 77.47 188.16 87.83 170.28C102.09 145.71 141.44 136.63 193.1 145.99C195.665 146.454 198.31 145.884 200.456 144.403C202.601 142.923 204.073 140.653 204.55 138.09C204.781 136.818 204.759 135.513 204.485 134.25C204.212 132.986 203.692 131.789 202.955 130.727C202.219 129.665 201.28 128.758 200.193 128.058C199.106 127.359 197.892 126.88 196.62 126.65C167.43 121.37 140.62 121.47 119.23 126.95C96.93 132.66 80.23 144.23 70.78 160.43C56.78 184.62 58.08 215.16 78.2 250.05C79.0638 251.556 80.3106 252.808 81.8138 253.677C83.3171 254.546 85.0235 255.003 86.76 255V255ZM361.61 143.73C393.85 144.15 414.22 153.04 424.4 170.59C438.61 195.07 426.92 233.4 393.13 273.11C391.914 274.54 391.134 276.289 390.881 278.149C390.629 280.008 390.915 281.902 391.705 283.604C392.495 285.307 393.757 286.747 395.34 287.755C396.924 288.763 398.763 289.295 400.64 289.29C402.069 289.291 403.481 288.983 404.78 288.385C406.078 287.788 407.231 286.916 408.16 285.83C427.28 263.36 440.51 240.29 446.41 219.12C452.55 197.12 450.84 176.91 441.41 160.74C427.61 136.96 401.28 124.59 361.82 124.07H361.68C359.073 124.054 356.566 125.074 354.712 126.907C352.857 128.739 351.806 131.233 351.79 133.84C351.774 136.447 352.794 138.954 354.627 140.808C356.459 142.663 358.953 143.714 361.56 143.73H361.61ZM326.47 414.89C324.233 413.556 321.559 413.159 319.031 413.787C316.502 414.414 314.324 416.015 312.97 418.24C296.56 445.39 276.4 460.34 256.2 460.34C227.71 460.34 200.2 431.03 182.47 381.92C181.578 379.471 179.754 377.474 177.395 376.365C175.037 375.255 172.335 375.124 169.88 376C168.658 376.429 167.533 377.096 166.569 377.961C165.606 378.826 164.823 379.874 164.265 381.043C163.707 382.212 163.386 383.479 163.32 384.773C163.254 386.066 163.444 387.36 163.88 388.58C173.88 416.35 187.35 439.33 202.88 455.04C218.99 471.38 237.43 480.04 256.2 480.04C283.58 480.04 309.74 461.71 329.85 428.43C330.519 427.323 330.961 426.094 331.153 424.815C331.345 423.536 331.282 422.232 330.968 420.977C330.654 419.722 330.095 418.542 329.323 417.504C328.551 416.466 327.581 415.592 326.47 414.93V414.89ZM431.7 338.54C426.411 338.513 421.197 339.792 416.521 342.264C411.845 344.735 407.85 348.323 404.893 352.707C401.935 357.092 400.106 362.14 399.566 367.401C399.027 372.663 399.794 377.976 401.8 382.87C360 402.37 282 387.66 209.93 346.25C177.02 327.35 147.77 304.39 125.33 279.86C123.564 277.942 121.113 276.798 118.509 276.676C115.904 276.554 113.357 277.465 111.42 279.21C110.46 280.077 109.681 281.126 109.129 282.295C108.576 283.465 108.26 284.732 108.2 286.025C108.139 287.317 108.335 288.608 108.776 289.824C109.218 291.04 109.895 292.157 110.77 293.11C134.56 319.11 165.45 343.39 200.1 363.29C240.38 386.42 282.37 401.92 321.53 408.1C333.103 409.978 344.805 410.951 356.53 411.01C379.65 411.01 399.53 406.71 415.04 398.22C419.287 400.814 424.077 402.388 429.034 402.819C433.992 403.25 438.982 402.526 443.612 400.704C448.243 398.882 452.388 396.012 455.723 392.319C459.058 388.625 461.491 384.209 462.832 379.417C464.173 374.625 464.385 369.587 463.452 364.699C462.518 359.811 460.465 355.207 457.452 351.246C454.439 347.285 450.55 344.077 446.089 341.872C441.628 339.668 436.716 338.527 431.74 338.54H431.7ZM431.7 383.2C428.861 383.2 426.106 382.242 423.88 380.48C423.267 379.633 422.524 378.887 421.68 378.27C419.946 376.012 419.027 373.234 419.073 370.387C419.119 367.541 420.126 364.794 421.932 362.593C423.737 360.391 426.235 358.866 429.017 358.265C431.8 357.663 434.704 358.021 437.257 359.28C439.811 360.539 441.863 362.624 443.08 365.198C444.298 367.771 444.608 370.681 443.962 373.453C443.316 376.226 441.75 378.698 439.52 380.468C437.29 382.237 434.527 383.2 431.68 383.2H431.7Z" fill="black"/>
<path d="M82.09 338.59C82.66 317.33 94.5 291.59 115.77 265.43C138.96 236.98 172.46 209.43 210.11 187.78C243.36 168.68 275.31 155.88 308.18 148.87C309.462 148.62 310.681 148.117 311.767 147.39C312.852 146.664 313.782 145.728 314.502 144.638C315.221 143.548 315.717 142.325 315.958 141.041C316.2 139.758 316.184 138.439 315.91 137.161C315.636 135.884 315.11 134.674 314.364 133.603C313.617 132.531 312.664 131.619 311.561 130.919C310.458 130.22 309.226 129.748 307.938 129.53C306.65 129.312 305.332 129.353 304.06 129.65C269.21 137.08 235.28 150.65 200.27 170.74C116.09 219.09 59.9 289.88 62.46 343.9C56.0544 348.135 51.3662 354.513 49.2352 361.891C47.1042 369.268 47.6697 377.164 50.8304 384.162C53.9911 391.161 59.5404 396.805 66.4841 400.085C73.4279 403.364 81.3125 404.064 88.7252 402.058C96.138 400.053 102.595 395.474 106.938 389.142C111.282 382.809 113.229 375.137 112.431 367.499C111.632 359.862 108.14 352.758 102.581 347.461C97.0212 342.163 89.7572 339.019 82.09 338.59V338.59ZM80.3 383.2C77.8316 383.182 75.4238 382.434 73.38 381.05C71.3363 379.666 69.7481 377.707 68.8158 375.422C67.8835 373.136 67.6488 370.625 68.1412 368.207C68.6336 365.788 69.8312 363.569 71.5829 361.83C73.3346 360.091 75.562 358.909 77.9842 358.434C80.4065 357.959 82.9152 358.212 85.1941 359.16C87.4729 360.109 89.4198 361.711 90.7894 363.765C92.159 365.818 92.8899 368.232 92.89 370.7C92.8741 374.026 91.5397 377.21 89.1794 379.553C86.8192 381.896 83.6259 383.208 80.3 383.2V383.2Z" fill="black"/>
<path d="M256.2 96.32C261.409 96.3333 266.543 95.0839 271.164 92.6787C275.784 90.2736 279.753 86.7844 282.73 82.51C300.62 94.2 316.73 117.51 328.54 148.63C341.54 183.02 348.38 224.01 348.38 267.17C348.38 304.35 343.19 339.52 333.38 370.77C332.987 372 332.843 373.295 332.956 374.581C333.07 375.867 333.438 377.118 334.04 378.26C334.639 379.41 335.46 380.429 336.456 381.26C337.451 382.091 338.602 382.716 339.84 383.1C342.33 383.869 345.024 383.624 347.335 382.418C349.646 381.212 351.387 379.143 352.18 376.66C362.6 343.52 368.11 306.32 368.11 267.17C368.11 220 360.34 175.4 345.64 138.17C331.23 101.69 311.51 75.77 288.5 63.01C288.302 56.6684 286.24 50.5257 282.572 45.3485C278.905 40.1714 273.794 36.189 267.877 33.8984C261.96 31.6078 255.5 31.1105 249.302 32.4686C243.105 33.8266 237.444 36.9798 233.027 41.5347C228.611 46.0896 225.633 51.8443 224.467 58.0808C223.3 64.3173 223.996 70.7592 226.467 76.6027C228.939 82.4461 233.077 87.4322 238.364 90.9388C243.652 94.4453 249.855 96.3169 256.2 96.32V96.32ZM256.2 51.66C258.668 51.6777 261.076 52.4259 263.12 53.8102C265.164 55.1945 266.752 57.1529 267.684 59.4385C268.616 61.7241 268.851 64.2345 268.359 66.6533C267.866 69.0721 266.669 71.291 264.917 73.0301C263.165 74.7693 260.938 75.9509 258.516 76.426C256.093 76.901 253.585 76.6483 251.306 75.6996C249.027 74.7509 247.08 73.1488 245.711 71.0952C244.341 69.0415 243.61 66.6284 243.61 64.16C243.626 60.8341 244.96 57.6502 247.321 55.3069C249.681 52.9635 252.874 51.652 256.2 51.66V51.66ZM251 243.36C245.114 244.621 239.904 248.016 236.374 252.893C232.845 257.769 231.247 263.779 231.888 269.764C232.529 275.749 235.364 281.285 239.847 285.302C244.329 289.32 250.141 291.535 256.16 291.52C257.895 291.518 259.624 291.334 261.32 290.97C264.482 290.329 267.485 289.066 270.155 287.254C272.825 285.443 275.108 283.119 276.873 280.418C278.637 277.717 279.847 274.692 280.433 271.519C281.019 268.346 280.969 265.089 280.285 261.936C279.602 258.782 278.299 255.796 276.452 253.151C274.605 250.506 272.251 248.253 269.526 246.525C266.802 244.797 263.761 243.627 260.581 243.084C257.4 242.541 254.144 242.634 251 243.36V243.36Z" fill="black"/>
</svg>
