<svg width="24" height="24" viewBox="0 0 24 24" fill="none" xmlns="http://www.w3.org/2000/svg">
<path d="M20.5529 18.1501H3.44688C3.06469 18.1498 2.69822 17.998 2.42788 17.7278C2.15754 17.4577 2.00541 17.0913 2.00488 16.7091V7.2911C2.00488 6.4961 2.65188 5.8501 3.44688 5.8501H20.5519C21.3469 5.8501 21.9939 6.4961 21.9939 7.2911V16.7091C21.9939 17.0913 21.8421 17.4578 21.5718 17.728C21.3016 17.9983 20.9351 18.1501 20.5529 18.1501ZM6.81088 15.2681V11.5201L8.73288 13.9221L10.6549 11.5201V15.2681H12.5769V8.7321H10.6549L8.73288 11.1351L6.81088 8.7321H4.88888V15.2671H6.81088V15.2681ZM19.6879 12.0001H17.7659V8.7321H15.8429V12.0001H13.9209L16.8049 15.3641L19.6879 12.0001Z" fill="white"/>
</svg>
